<?xml version="1.0" encoding="iso-8859-1"?>
<!-- Generator: Adobe Illustrator 19.0.0, SVG Export Plug-In . SVG Version: 6.00 Build 0)  -->
<svg version="1.1" id="Capa_1" xmlns="http://www.w3.org/2000/svg" xmlns:xlink="http://www.w3.org/1999/xlink" x="0px" y="0px"
	 viewBox="0 0 512.004 512.004" style="enable-background:new 0 0 512.004 512.004;" xml:space="preserve">
<path style="fill:#D9EEF7;" d="M458.669,32v32H32.002V32c0.035-11.767,9.566-21.298,21.333-21.333h384
	C449.103,10.702,458.633,20.233,458.669,32z"/>
<path style="fill:#AAC4DA;" d="M458.669,64v352l-213.333,85.333L32.002,416V64h42.667v32v288l170.667,64l170.667-64V96V64H458.669z"
	/>
<path style="fill:#31E8BB;" d="M416.002,96v288l-170.667,64L74.669,384V96V64h341.333V96z"/>
<path style="fill:#D9EEF7;" d="M469.335,138.667V416c0,74.667-85.333,85.333-85.333,85.333V138.667H469.335z"/>
<path style="fill:#F2F2F2;" d="M405.335,10.667h42.667v74.667h-42.667V10.667z"/>
<path style="fill:#AAC4DA;" d="M448.002,117.333v21.333h-42.667v-21.333v-32h42.667V117.333z"/>
<g>
	<path style="fill:#4C5B66;" d="M245.335,489.845L42.669,408.779V74.667h309.333V53.333H42.669V32
		c0-5.891,4.776-10.667,10.667-10.667h320V0h-320c-17.673,0-32,14.327-32,32v21.333H0.002v21.333h21.333V416
		c-0.002,4.365,2.656,8.29,6.709,9.909l213.333,85.333c2.541,1.015,5.374,1.015,7.915,0l97.067-38.805l-7.915-19.808
		L245.335,489.845z"/>
	<path style="fill:#4C5B66;" d="M256.002,432.608V149.333h42.667V128H192.002v21.333h42.667v283.275l-149.333-56V96H64.002v288
		c-0.004,4.447,2.75,8.43,6.912,9.995l170.667,64c2.41,0.885,5.057,0.885,7.467,0l98.037-36.768l-7.467-19.979L256.002,432.608z"/>
	<path style="fill:#4C5B66;" d="M490.669,128h-128c-11.782,0-21.333,9.551-21.333,21.333v21.333h21.333v-21.333h10.667v352
		c0,5.891,4.776,10.667,10.667,10.667c0.442,0.003,0.884-0.025,1.323-0.085c32.747-4.096,94.677-29.408,94.677-95.915V149.333
		h10.667v21.333h21.333v-21.333C512.002,137.551,502.451,128,490.669,128z M458.669,416c0,49.067-42.528,66.539-64,72.245V149.333
		h64V416z"/>
	<path style="fill:#4C5B66;" d="M416.002,266.667h21.333v170.667h-21.333V266.667z"/>
	<path style="fill:#4C5B66;" d="M373.335,74.667V96h21.333v21.333h21.333V96h21.333v21.333h21.333V96h21.333V74.667h-21.333v-64
		C458.669,4.776,453.893,0,448.002,0h-42.667c-5.891,0-10.667,4.776-10.667,10.667v64H373.335z M416.002,21.333h21.333v53.333
		h-21.333V21.333z"/>
	<path style="fill:#4C5B66;" d="M416.002,224h21.333v21.333h-21.333V224z"/>
	<path style="fill:#4C5B66;" d="M416.002,181.333h21.333v21.333h-21.333V181.333z"/>
</g>
<g>
</g>
<g>
</g>
<g>
</g>
<g>
</g>
<g>
</g>
<g>
</g>
<g>
</g>
<g>
</g>
<g>
</g>
<g>
</g>
<g>
</g>
<g>
</g>
<g>
</g>
<g>
</g>
<g>
</g>
</svg>
