<svg id="Capa_1" enable-background="new 0 0 512 512" height="512" viewBox="0 0 512 512" width="512" xmlns="http://www.w3.org/2000/svg"><g><g><g><g><g><g><g><g><g><circle cx="256" cy="256" fill="#1dd882" r="256"/></g></g></g></g></g></g></g></g><path d="m409.203 200.194-124.743 124.744-71.634-71.634-8.498 7.09-52.214-52.214-5.411 10.177-55.301-55.301-52.325 70.404 272.491 272.491c114.668-25.378 200.432-127.649 200.432-249.951 0-.515-.002-1.03-.005-1.544l-91.398-91.398z" fill="#06b26b"/><g><g><path d="m290.787 368.832-52.325-70.404 43.323-5.115 17.389-40.009 43.322-5.115 17.389-40.008 43.323-5.115 17.389-40.009 52.325 70.404z" fill="#e9edf5"/></g><g><path d="m221.213 368.832 52.325-70.404-43.323-5.115-17.389-40.009-43.322-5.115-17.389-40.008-43.323-5.115-17.389-40.009-52.325 70.404z" fill="#fff"/></g></g><g><circle cx="256" cy="344.302" fill="#555a66" r="60.597"/></g><g><path d="m316.597 344.302c0-33.427-27.065-60.529-60.477-60.594v121.188c33.412-.066 60.477-27.168 60.477-60.594z" fill="#333940"/></g><g><circle cx="256" cy="344.302" fill="#9196aa" r="34.591"/></g><g><path d="m290.591 344.302c0-19.063-15.422-34.522-34.47-34.588v69.175c19.048-.065 34.47-15.524 34.47-34.587z" fill="#707789"/></g></g></svg>